<mxfile host="65bd71144e">
    <diagram id="8qu_Wv40ii5HgeLjwZKw" name="Page-1">
        <mxGraphModel dx="2050" dy="860" grid="1" gridSize="10" guides="1" tooltips="1" connect="1" arrows="1" fold="1" page="1" pageScale="1" pageWidth="850" pageHeight="1100" background="#FFFFFF" math="0" shadow="0">
            <root>
                <mxCell id="0"/>
                <mxCell id="1" parent="0"/>
                <mxCell id="36" value="&lt;font color=&quot;#000000&quot;&gt;Dallas09&lt;/font&gt;" style="shape=mxgraph.ibm.box;prType=region;fontStyle=0;verticalAlign=top;align=left;spacingLeft=32;spacingTop=4;fillColor=none;rounded=0;whiteSpace=wrap;html=1;strokeColor=#919191;strokeWidth=2;dashed=0;container=1;spacing=-4;collapsible=0;expand=0;recursiveResize=0;" vertex="1" parent="1">
                    <mxGeometry x="-170" y="170" width="780" height="480" as="geometry"/>
                </mxCell>
                <mxCell id="29" value="&lt;font color=&quot;#000000&quot;&gt;pod - B&lt;/font&gt;" style="shape=mxgraph.ibm.box;prType=zone;fontStyle=0;verticalAlign=top;align=left;spacingLeft=32;spacingTop=4;fillColor=none;rounded=0;whiteSpace=wrap;html=1;strokeColor=#919191;strokeWidth=1;dashed=0;container=1;spacing=-4;collapsible=0;expand=0;recursiveResize=0;" vertex="1" parent="36">
                    <mxGeometry x="460" y="50" width="220" height="250" as="geometry"/>
                </mxCell>
                <mxCell id="31" value="" style="triangle;whiteSpace=wrap;html=1;gradientColor=#D3D3D3;strokeColor=none;gradientDirection=east;rotation=90;" vertex="1" parent="29">
                    <mxGeometry x="86" y="110" width="40" height="110" as="geometry"/>
                </mxCell>
                <mxCell id="32" value="EXSI" style="rounded=0;whiteSpace=wrap;html=1;fillColor=#FF8000;strokeColor=#FF8000;" vertex="1" parent="29">
                    <mxGeometry x="50" y="120" width="116" height="28" as="geometry"/>
                </mxCell>
                <mxCell id="33" value="" style="sketch=0;pointerEvents=1;shadow=0;dashed=0;html=1;strokeColor=none;fillColor=#005F4B;labelPosition=center;verticalLabelPosition=bottom;verticalAlign=top;align=center;outlineConnect=0;shape=mxgraph.veeam2.virtual_machine;" vertex="1" parent="29">
                    <mxGeometry x="89" y="86" width="28.000000000000004" height="28.000000000000004" as="geometry"/>
                </mxCell>
                <mxCell id="34" value="" style="sketch=0;pointerEvents=1;shadow=0;dashed=0;html=1;strokeColor=none;fillColor=#005F4B;labelPosition=center;verticalLabelPosition=bottom;verticalAlign=top;align=center;outlineConnect=0;shape=mxgraph.veeam2.1u_server;" vertex="1" parent="29">
                    <mxGeometry x="45.5" y="189" width="129" height="31" as="geometry"/>
                </mxCell>
                <mxCell id="49" value="" style="sketch=0;pointerEvents=1;shadow=0;dashed=0;html=1;strokeColor=none;fillColor=#005F4B;labelPosition=center;verticalLabelPosition=bottom;verticalAlign=top;align=center;outlineConnect=0;shape=mxgraph.veeam2.scale_out_backup_repository;" vertex="1" parent="29">
                    <mxGeometry x="150" y="60" width="37" height="38" as="geometry"/>
                </mxCell>
                <mxCell id="50" value="&lt;font color=&quot;#000000&quot;&gt;DHCP2&lt;/font&gt;" style="text;html=1;strokeColor=none;fillColor=none;align=center;verticalAlign=middle;whiteSpace=wrap;rounded=0;" vertex="1" parent="29">
                    <mxGeometry x="138.5" y="90" width="60" height="30" as="geometry"/>
                </mxCell>
                <mxCell id="2" value="&lt;font color=&quot;#000000&quot;&gt;pod - A&lt;/font&gt;" style="shape=mxgraph.ibm.box;prType=zone;fontStyle=0;verticalAlign=top;align=left;spacingLeft=32;spacingTop=4;fillColor=none;rounded=0;whiteSpace=wrap;html=1;strokeColor=#919191;strokeWidth=1;dashed=0;container=1;spacing=-4;collapsible=0;expand=0;recursiveResize=0;" vertex="1" parent="36">
                    <mxGeometry x="70" y="50" width="220" height="250" as="geometry"/>
                </mxCell>
                <mxCell id="11" value="" style="sketch=0;pointerEvents=1;shadow=0;dashed=0;html=1;strokeColor=none;fillColor=#005F4B;labelPosition=center;verticalLabelPosition=bottom;verticalAlign=top;align=center;outlineConnect=0;shape=mxgraph.veeam2.virtual_machine;" vertex="1" parent="2">
                    <mxGeometry x="98" y="86" width="28.000000000000004" height="28.000000000000004" as="geometry"/>
                </mxCell>
                <mxCell id="23" value="" style="triangle;whiteSpace=wrap;html=1;gradientColor=#D3D3D3;strokeColor=none;gradientDirection=east;rotation=90;" vertex="1" parent="2">
                    <mxGeometry x="86" y="110" width="40" height="110" as="geometry"/>
                </mxCell>
                <mxCell id="25" value="EXSI" style="rounded=0;whiteSpace=wrap;html=1;fillColor=#FF8000;strokeColor=#FF8000;" vertex="1" parent="2">
                    <mxGeometry x="50" y="120" width="116" height="28" as="geometry"/>
                </mxCell>
                <mxCell id="22" value="" style="sketch=0;pointerEvents=1;shadow=0;dashed=0;html=1;strokeColor=none;fillColor=#005F4B;labelPosition=center;verticalLabelPosition=bottom;verticalAlign=top;align=center;outlineConnect=0;shape=mxgraph.veeam2.1u_server;" vertex="1" parent="2">
                    <mxGeometry x="41.5" y="189" width="129" height="31" as="geometry"/>
                </mxCell>
                <mxCell id="45" value="" style="sketch=0;aspect=fixed;html=1;points=[];align=center;image;fontSize=12;image=img/lib/mscae/DNS.svg;strokeColor=#003300;fillColor=#003300;" vertex="1" parent="36">
                    <mxGeometry x="342" width="50" height="50" as="geometry"/>
                </mxCell>
                <mxCell id="47" value="" style="sketch=0;pointerEvents=1;shadow=0;dashed=0;html=1;strokeColor=none;fillColor=#005F4B;labelPosition=center;verticalLabelPosition=bottom;verticalAlign=top;align=center;outlineConnect=0;shape=mxgraph.veeam2.scale_out_backup_repository;" vertex="1" parent="36">
                    <mxGeometry x="90" y="110" width="37" height="38" as="geometry"/>
                </mxCell>
                <mxCell id="48" value="&lt;font color=&quot;#000000&quot;&gt;DHCP1&lt;/font&gt;" style="text;html=1;strokeColor=none;fillColor=none;align=center;verticalAlign=middle;whiteSpace=wrap;rounded=0;" vertex="1" parent="36">
                    <mxGeometry x="78.5" y="148" width="60" height="30" as="geometry"/>
                </mxCell>
                <mxCell id="16" style="edgeStyle=none;html=1;strokeColor=#000000;" edge="1" parent="36" source="11" target="33">
                    <mxGeometry relative="1" as="geometry">
                        <mxPoint x="454" y="150.94964028776985" as="targetPoint"/>
                    </mxGeometry>
                </mxCell>
                <mxCell id="8" value="" style="sketch=0;pointerEvents=1;shadow=0;dashed=0;html=1;strokeColor=none;fillColor=#005F4B;labelPosition=center;verticalLabelPosition=bottom;verticalAlign=top;align=center;outlineConnect=0;shape=mxgraph.veeam2.storage_stack;" vertex="1" parent="36">
                    <mxGeometry x="342" y="310" width="80" height="54" as="geometry"/>
                </mxCell>
                <mxCell id="28" style="edgeStyle=orthogonalEdgeStyle;html=1;endArrow=none;endFill=0;strokeColor=#000000;" edge="1" parent="36" source="8" target="22">
                    <mxGeometry relative="1" as="geometry"/>
                </mxCell>
                <mxCell id="35" style="edgeStyle=orthogonalEdgeStyle;html=1;endArrow=none;endFill=0;strokeColor=#000000;" edge="1" parent="36" source="8" target="34">
                    <mxGeometry relative="1" as="geometry"/>
                </mxCell>
                <mxCell id="18" value="&lt;font color=&quot;#000000&quot;&gt;块存储&lt;/font&gt;" style="text;html=1;strokeColor=none;fillColor=none;align=center;verticalAlign=middle;whiteSpace=wrap;rounded=0;" vertex="1" parent="36">
                    <mxGeometry x="352" y="364" width="60" height="30" as="geometry"/>
                </mxCell>
                <mxCell id="17" value="&lt;font color=&quot;#000000&quot;&gt;同Dallas9跨Pod迁移&lt;/font&gt;" style="text;html=1;strokeColor=none;fillColor=none;align=center;verticalAlign=middle;whiteSpace=wrap;rounded=0;" vertex="1" parent="1">
                    <mxGeometry x="130" y="290" width="135" height="30" as="geometry"/>
                </mxCell>
            </root>
        </mxGraphModel>
    </diagram>
</mxfile>